# xmcd CD Database Entry
#
# Track frame offsets:
# 150
# 22022
# 39775
# 56100
# 75212
# 99512
# 113085
# 130825
# 146515
# 161235
#
# Disc length: 2341 seconds
#
# Revision: 1
# Processed by: cddbd v1.4PL0 Copyright (c) Steve Scherf et al.
# Submitted via: tcd 2.0b
#
DISCID=7909230a
DTITLE=The Judds - Love Can Build A Bridge
DYEAR=1900
DGENRE=
TTITLE0=Born to be Blue
TTITLE1=Calling in the Wind
TTITLE2=In My Dreams
TTITLE3=Rompin' Stompin' Blues
TTITLE4=Love can build a Bridge
TTITLE5=This Country's Rockin'
TTITLE6=One Hundred and Two
TTITLE7=John Deere Tractor
TTITLE8=Talk About Love
TTITLE9=Are The Roses Not Blooming
EXTD=1990\n
EXTT0=
EXTT1=
EXTT2=
EXTT3=
EXTT4=
EXTT5=
EXTT6=
EXTT7=
EXTT8=
EXTT9=
PLAYORDER=
